<svg width="100" height="100" viewBox="0 0 100 100" fill="none" xmlns="http://www.w3.org/2000/svg">
<rect width="100" height="100" rx="40" fill="#3E3298"/>
<rect width="100" height="100" rx="40" fill="url(#paint0_radial_199_3277)"/>
<path fill-rule="evenodd" clip-rule="evenodd" d="M79.5206 44.6261C79.8398 46.3956 80.0003 48.1902 80 49.9883L79.9937 49.9978C79.9942 56.8017 77.682 63.4038 73.4367 68.7205C69.1913 74.0372 63.2649 77.7527 56.6301 79.2573C49.9952 80.7619 43.046 79.9661 36.9229 77.0006C30.7998 74.0352 25.8665 69.0761 22.9327 62.9373C19.9988 56.7985 19.2386 49.8446 20.7769 43.2168C22.3151 36.589 26.0604 30.6811 31.3982 26.4624C36.7359 22.2438 43.349 19.9652 50.1522 20.0004C56.9554 20.0356 63.5445 22.3827 68.8383 26.6564L63.0036 30.9588C58.7444 28.0475 53.6331 26.6465 48.4849 26.9794C43.3368 27.3123 38.4484 29.3599 34.5996 32.7955C30.7508 36.2311 28.1633 40.8569 27.2498 45.9348C26.3364 51.0127 27.1497 56.2503 29.5599 60.8121C31.9701 65.3738 35.8384 68.9969 40.5477 71.1034C45.2571 73.2099 50.5361 73.6784 55.5428 72.4342C60.5495 71.19 64.9953 68.3048 68.171 64.2388C71.3468 60.1729 73.0696 55.1604 73.0645 50.0009V49.3858L79.5206 44.6261ZM77.647 37.6767C76.6832 35.5742 75.4749 33.59 74.0466 31.7642L50.2663 49.1077L38.8235 42.0102V50.5491L50.2663 57.6466L77.647 37.6767Z" fill="white"/>
<defs>
<radialGradient id="paint0_radial_199_3277" cx="0" cy="0" r="1" gradientUnits="userSpaceOnUse" gradientTransform="translate(50 -380.833) rotate(90) scale(601.667 75.2083)">
<stop stop-color="#FEB005" stop-opacity="0.65"/>
<stop offset="1" stop-color="#FEB005" stop-opacity="0"/>
</radialGradient>
</defs>
</svg>
